<svg id="svg" version="1.0" xmlns="http://www.w3.org/2000/svg" width="450pt" height="450pt" viewBox="0 0 450 450" preserveAspectRatio="xMidYMid meet">
	<g transform="translate(0.000000,450.000000) scale(0.100000,-0.100000)" stroke="none">
		<path d="M2150 4348 c-78 -36 -797 -355 -1260 -558 -228 -101 -345 -157 -367 -178 -28 -27 -32 -39 -38 -106 -13 -139 1 -917 19 -1066 45 -365 165 -767 308 -1030 172 -317 478 -662 828 -932 192 -148 546 -358 604 -358 53 0 359 178 556 323 351 259 640 559 823 855 156 252 254 503 317 811 61 301 80 544 79 1006 0 373 -6 453 -35 492 -16 22 -130 76 -505 244 -266 118 -642 286 -836 372 -265 118 -361 157 -390 156 -21 0 -67 -14 -103 -31z m710 -793 c164 -65 283 -222 297 -395 19 -224 -140 -430 -362 -471 -108 -20 -245 10 -332 71 l-43 29 -162 -103 c-90 -56 -199 -126 -243 -154 l-80 -51 0 -101 0 -101 251 -165 252 -165 47 30 c131 83 284 89 432 16 89 -44 153 -112 202 -214 93 -196 26 -435 -154 -556 -83 -56 -149 -75 -255 -75 -138 0 -234 42 -327 143 -81 87 -116 185 -115 317 l1 85 -256 166 -257 166 -55 -29 c-194 -100 -406 -67 -546 84 -96 104 -139 241 -117 375 52 314 399 480 664 318 31 -19 58 -35 61 -35 4 0 119 73 257 162 l252 161 -6 33 c-4 18 -2 63 4 100 28 174 158 323 322 369 68 19 206 14 268 -10z"/>
	</g>
</svg>
